<svg width="24" height="21" viewBox="0 0 24 21" fill="none" xmlns="http://www.w3.org/2000/svg">
<path d="M6.04391 16.7204C5.68366 16.7204 5.35737 16.6334 5.06506 16.4593C4.77276 16.2852 4.57917 16.051 4.48428 15.7567L2.28046 9.31096C2.20994 9.10245 2.25449 8.90928 2.41411 8.73147C2.57372 8.55366 2.78814 8.46475 3.05736 8.46475H7.74968L11.342 3.99397C11.4253 3.89448 11.5228 3.82092 11.6343 3.7733C11.7458 3.72566 11.8721 3.70184 12.0131 3.70184C12.1542 3.70184 12.2804 3.7283 12.392 3.78122C12.5035 3.83415 12.601 3.91036 12.6843 4.00984L16.2382 8.46475H20.942C21.2112 8.46475 21.4288 8.55366 21.5949 8.73147C21.7609 8.90928 21.8023 9.10245 21.7189 9.31096L19.4766 15.7567C19.3817 16.051 19.1882 16.2852 18.8958 16.4593C18.6035 16.6334 18.2773 16.7204 17.917 16.7204H6.04391ZM5.96121 15.8949H18.0382C18.1792 15.8949 18.301 15.8605 18.4035 15.7917C18.5061 15.7229 18.5766 15.6303 18.6151 15.5138L20.6997 9.29032H3.29968L5.38431 15.5138C5.42276 15.6303 5.49327 15.7229 5.59583 15.7917C5.6984 15.8605 5.82019 15.8949 5.96121 15.8949ZM11.9997 13.4182C12.2676 13.4182 12.5013 13.3359 12.7007 13.1713C12.9 13.0067 12.9997 12.8138 12.9997 12.5926C12.9997 12.3714 12.9 12.1785 12.7007 12.0139C12.5013 11.8493 12.2676 11.767 11.9997 11.767C11.7317 11.767 11.4981 11.8493 11.2987 12.0139C11.0994 12.1785 10.9997 12.3714 10.9997 12.5926C10.9997 12.8138 11.0994 13.0067 11.2987 13.1713C11.4981 13.3359 11.7317 13.4182 11.9997 13.4182ZM8.96316 8.46475H15.0305L11.9939 4.64809L8.96316 8.46475Z" fill="#098B93"/>
<ellipse cx="12" cy="12.5926" rx="2" ry="1.65114" fill="#F9AE00"/>
</svg>
