<svg width="24" height="24" viewBox="0 0 24 24" fill="none" xmlns="http://www.w3.org/2000/svg">
<path d="M11.9991 0.959961C5.9117 0.959961 0.959056 5.9126 0.959056 12C0.959056 13.9008 1.4501 15.7699 2.3813 17.4192L0.976816 22.4304C0.930736 22.595 0.975376 22.7716 1.09442 22.894C1.1861 22.9886 1.3109 23.04 1.43906 23.04C1.47746 23.04 1.51634 23.0352 1.55426 23.026L6.78434 21.7305C8.3813 22.5878 10.1799 23.04 11.9991 23.04C18.0864 23.04 23.0391 18.0873 23.0391 12C23.0391 5.9126 18.0864 0.959961 11.9991 0.959961ZM17.5527 15.8956C17.3165 16.5494 16.1837 17.146 15.6394 17.2262C15.1507 17.2977 14.5325 17.3284 13.8538 17.1153C13.4424 16.9857 12.9144 16.8139 12.2381 16.5254C9.39506 15.3129 7.53842 12.4862 7.39634 12.2995C7.25474 12.1128 6.23906 10.7822 6.23906 9.40508C6.23906 8.02796 6.97106 7.35068 7.23122 7.07036C7.49138 6.79004 7.7981 6.71996 7.98722 6.71996C8.17634 6.71996 8.36498 6.72236 8.53058 6.73004C8.70482 6.73868 8.93858 6.66428 9.1685 7.21052C9.40466 7.77116 9.97154 9.14828 10.0416 9.28892C10.1127 9.42908 10.1597 9.59276 10.0656 9.77948C9.97154 9.9662 9.9245 10.0828 9.78242 10.2465C9.64034 10.4102 9.48482 10.6113 9.35714 10.7371C9.21506 10.8768 9.0677 11.028 9.23282 11.3083C9.39794 11.5886 9.96674 12.5049 10.8096 13.247C11.892 14.2003 12.8055 14.496 13.0887 14.6361C13.3719 14.7763 13.5375 14.7528 13.7026 14.566C13.8677 14.3788 14.4111 13.7486 14.5997 13.4688C14.7883 13.1889 14.9775 13.235 15.2376 13.3286C15.4978 13.4217 16.8912 14.0985 17.1744 14.2387C17.4576 14.3788 17.6467 14.4489 17.7178 14.5656C17.7888 14.6817 17.7888 15.2424 17.5527 15.8956Z" fill="white"/>
</svg>
