<svg width="22" height="21" viewBox="0 0 22 21" fill="none" xmlns="http://www.w3.org/2000/svg">
<path d="M21.1456 1.1448C20.7856 0.839522 20.2202 0.795842 19.6355 1.03056H19.6346C19.0197 1.27728 2.22928 8.4792 1.54576 8.77344C1.42144 8.81664 0.335681 9.22176 0.447521 10.1242C0.547361 10.9378 1.42 11.2747 1.52656 11.3136L5.7952 12.7752C6.0784 13.7179 7.1224 17.196 7.35328 17.939C7.49728 18.4022 7.732 19.0109 8.14336 19.1362C8.50432 19.2754 8.86336 19.1482 9.09568 18.9658L11.7054 16.5451L15.9184 19.8307L16.0187 19.8907C16.3048 20.0174 16.5789 20.0808 16.8405 20.0808C17.0426 20.0808 17.2365 20.0429 17.4218 19.967C18.053 19.7078 18.3054 19.1064 18.3318 19.0382L21.4787 2.68128C21.6707 1.80768 21.4038 1.3632 21.1456 1.1448ZM9.55984 13.3598L8.11984 17.1998L6.67984 12.3998L17.7198 4.23984L9.55984 13.3598Z" fill="white"/>
</svg>
