<svg width="98" height="88" viewBox="0 0 98 88" fill="none" xmlns="http://www.w3.org/2000/svg">
<path d="M47.2496 84.375C48.083 84.375 48.9163 84.2083 49.7497 83.875C50.583 83.5417 51.2497 83.0833 51.7497 82.5L90.4996 43.75C91.833 42.4167 92.8955 41.0555 93.6871 39.6666C94.4788 38.2778 94.8746 36.7223 94.8746 35C94.8746 33.25 94.4788 31.5625 93.6871 29.9375C92.8955 28.3125 91.833 26.8333 90.4996 25.5L72.1246 7.125C70.7913 5.79167 69.4371 4.79167 68.0621 4.125C66.6871 3.45833 65.1247 3.125 63.3747 3.125C61.6524 3.125 60.076 3.45833 58.6455 4.125C57.2149 4.79167 55.8747 5.79167 54.6247 7.125L49.1247 12.625L58.6247 22.125C59.458 22.9583 60.1455 23.9792 60.6872 25.1875C61.2288 26.3958 61.4997 27.625 61.4997 28.875C61.4997 31.125 60.7288 33 59.1872 34.5C57.6455 36 55.7913 36.75 53.6247 36.75C52.2913 36.75 51.083 36.5625 49.9997 36.1875C48.9163 35.8125 47.9294 35.215 47.039 34.3949L37.4996 24.75L15.7496 46.5C15.1663 47.0833 14.708 47.7928 14.3746 48.6283C14.0413 49.4638 13.8746 50.2698 13.8746 51.046C13.8746 52.5153 14.333 53.6875 15.2496 54.5625C16.1663 55.4375 17.3191 55.875 18.708 55.875C19.5691 55.875 20.4163 55.6875 21.2496 55.3125C22.083 54.9375 22.7496 54.5 23.2496 54L38.8746 38.375L40.8746 40.375L25.2496 55.875C24.6663 56.5417 24.208 57.2708 23.8746 58.0625C23.5413 58.8542 23.3746 59.6667 23.3746 60.5C23.3746 61.8333 23.8538 62.9792 24.8121 63.9375C25.7705 64.8958 26.9163 65.375 28.2496 65.375C29.083 65.375 29.9163 65.2083 30.7496 64.875C31.583 64.5417 32.2496 64.0833 32.7496 63.5L49.8747 46.375L51.8747 48.375L34.7496 65.375C34.2496 65.9583 33.8121 66.6597 33.4371 67.4791C33.0621 68.2986 32.8746 69.1389 32.8746 70C32.8746 71.3333 33.3538 72.4792 34.3121 73.4375C35.2705 74.3958 36.4163 74.875 37.7496 74.875C38.583 74.875 39.3955 74.7083 40.1871 74.375C40.9788 74.0417 41.6663 73.5833 42.2496 73L59.3747 55.875L61.3747 57.875L44.2496 75C43.6663 75.5833 43.208 76.3125 42.8746 77.1875C42.5413 78.0625 42.3746 78.875 42.3746 79.625C42.3746 81.0417 42.8538 82.1875 43.8121 83.0625C44.7705 83.9375 45.9163 84.375 47.2496 84.375ZM47.2576 87.125C44.919 87.125 42.958 86.2292 41.3746 84.4375C39.7913 82.6458 39.208 80.37 39.6246 77.6101C36.7913 77.87 34.4371 77.1667 32.5621 75.5C30.6871 73.8333 29.8746 71.375 30.1246 68.125C26.958 68.2917 24.4996 67.5208 22.7496 65.8125C20.9996 64.1042 20.2913 61.7083 20.6246 58.625C18.0413 58.875 15.8121 58.3333 13.9371 57C12.0621 55.6667 11.1246 53.6667 11.1246 51C11.1246 49.8333 11.3631 48.6646 11.8401 47.4939C12.3171 46.3231 12.9536 45.3252 13.7496 44.5L37.4996 20.75L48.6247 31.875C49.208 32.4583 49.9302 32.9583 50.7913 33.375C51.6524 33.7917 52.5969 34 53.6247 34C54.958 34 56.1455 33.5 57.1872 32.5C58.2288 31.5 58.7497 30.2853 58.7497 28.8558C58.7497 27.9519 58.5413 27.1042 58.1247 26.3125C57.708 25.5208 57.208 24.7917 56.6247 24.125L39.6246 7.125C38.2913 5.79167 36.9163 4.79167 35.4996 4.125C34.083 3.45833 32.4996 3.125 30.7496 3.125C29.0274 3.125 27.4927 3.45833 26.1455 4.125C24.7983 4.79167 23.4604 5.78571 22.132 7.10712L7.24965 22C5.91631 23.3333 4.89548 24.8333 4.18715 26.5C3.47881 28.1667 3.16631 30.0208 3.24965 32.0625C3.24965 33.3542 3.45798 34.6042 3.87465 35.8125C4.29131 37.0208 4.83298 38.125 5.49965 39.125L3.24965 41.25C2.58298 40.0833 1.97881 38.6667 1.43714 37C0.895478 35.3333 0.582978 33.625 0.499645 31.875C0.416312 29.5417 0.791312 27.3542 1.62464 25.3125C2.45798 23.2708 3.66631 21.4583 5.24965 19.875L19.9996 5.125C21.583 3.54167 23.2619 2.35417 25.0363 1.5625C26.8108 0.770833 28.7483 0.375 30.8488 0.375C32.9494 0.375 34.8746 0.770833 36.6246 1.5625C38.3746 2.35417 40.0413 3.54167 41.6246 5.125L47.1246 10.625L52.6247 5.125C54.208 3.54167 55.866 2.35417 57.5988 1.5625C59.3316 0.770833 61.2483 0.375 63.3488 0.375C65.4494 0.375 67.3955 0.770833 69.1871 1.5625C70.9788 2.35417 72.6663 3.54167 74.2496 5.125L92.4996 23.375C94.083 24.9583 95.333 26.7722 96.2496 28.8166C97.1663 30.861 97.6247 32.9235 97.6247 35.0041C97.6247 37.0847 97.1663 39 96.2496 40.75C95.333 42.5 94.083 44.1667 92.4996 45.75L53.7497 84.5C52.833 85.5 51.8316 86.1875 50.7457 86.5625C49.6596 86.9375 48.497 87.125 47.2576 87.125Z" fill="#F9AE00"/>
</svg>
