<svg width="16" height="20" viewBox="0 0 16 20" fill="none" xmlns="http://www.w3.org/2000/svg">
<path d="M8.0039 9.68268C8.45206 9.68268 8.83416 9.52311 9.15017 9.20398C9.46621 8.88483 9.62422 8.50118 9.62422 8.05303C9.62422 7.60486 9.46465 7.22277 9.1455 6.90676C8.82635 6.59072 8.4427 6.4327 7.99455 6.4327C7.54638 6.4327 7.16429 6.59228 6.84827 6.91143C6.53224 7.23058 6.37422 7.61423 6.37422 8.06238C6.37422 8.51055 6.5338 8.89264 6.85295 9.20866C7.1721 9.52467 7.55575 9.68268 8.0039 9.68268ZM7.99922 18.0058C10.0877 16.143 11.6787 14.3667 12.7723 12.6769C13.8659 10.9872 14.4127 9.51091 14.4127 8.24808C14.4127 6.31795 13.7997 4.73157 12.5736 3.48896C11.3476 2.24632 9.82284 1.62501 7.99922 1.62501C6.17561 1.62501 4.6508 2.24632 3.4248 3.48896C2.19878 4.73157 1.58577 6.31795 1.58577 8.24808C1.58577 9.51091 2.14186 10.9872 3.25405 12.6769C4.36623 14.3667 5.94796 16.143 7.99922 18.0058ZM7.99922 19.5096C5.48257 17.3288 3.5954 15.2993 2.3377 13.4212C1.08001 11.543 0.451172 9.8186 0.451172 8.24808C0.451172 5.94041 1.19765 4.07216 2.6906 2.64331C4.18353 1.21446 5.95307 0.500031 7.99922 0.500031C10.0454 0.500031 11.8149 1.21446 13.3078 2.64331C14.8008 4.07216 15.5473 5.94041 15.5473 8.24808C15.5473 9.8186 14.9184 11.543 13.6607 13.4212C12.403 15.2993 10.5159 17.3288 7.99922 19.5096Z" fill="#098B93"/>
</svg>
