<svg width="25" height="25" viewBox="0 0 25 25" fill="none" xmlns="http://www.w3.org/2000/svg">
<path fill-rule="evenodd" clip-rule="evenodd" d="M3.5 6C4.88071 6 6 4.88071 6 3.5C6 2.11929 4.88071 1 3.5 1C2.11929 1 1 2.11929 1 3.5C1 4.88071 2.11929 6 3.5 6ZM3.5 7C5.433 7 7 5.433 7 3.5C7 1.567 5.433 0 3.5 0C1.567 0 0 1.567 0 3.5C0 5.433 1.567 7 3.5 7ZM3.5 15C4.88071 15 6 13.8807 6 12.5C6 11.1193 4.88071 10 3.5 10C2.11929 10 1 11.1193 1 12.5C1 13.8807 2.11929 15 3.5 15ZM3.5 16C5.433 16 7 14.433 7 12.5C7 10.567 5.433 9 3.5 9C1.567 9 0 10.567 0 12.5C0 14.433 1.567 16 3.5 16ZM6 21.5C6 22.8807 4.88071 24 3.5 24C2.11929 24 1 22.8807 1 21.5C1 20.1193 2.11929 19 3.5 19C4.88071 19 6 20.1193 6 21.5ZM7 21.5C7 23.433 5.433 25 3.5 25C1.567 25 0 23.433 0 21.5C0 19.567 1.567 18 3.5 18C5.433 18 7 19.567 7 21.5ZM12.5 6C13.8807 6 15 4.88071 15 3.5C15 2.11929 13.8807 1 12.5 1C11.1193 1 10 2.11929 10 3.5C10 4.88071 11.1193 6 12.5 6ZM12.5 7C14.433 7 16 5.433 16 3.5C16 1.567 14.433 0 12.5 0C10.567 0 9 1.567 9 3.5C9 5.433 10.567 7 12.5 7ZM15 12.5C15 13.8807 13.8807 15 12.5 15C11.1193 15 10 13.8807 10 12.5C10 11.1193 11.1193 10 12.5 10C13.8807 10 15 11.1193 15 12.5ZM16 12.5C16 14.433 14.433 16 12.5 16C10.567 16 9 14.433 9 12.5C9 10.567 10.567 9 12.5 9C14.433 9 16 10.567 16 12.5ZM12.5 24C13.8807 24 15 22.8807 15 21.5C15 20.1193 13.8807 19 12.5 19C11.1193 19 10 20.1193 10 21.5C10 22.8807 11.1193 24 12.5 24ZM12.5 25C14.433 25 16 23.433 16 21.5C16 19.567 14.433 18 12.5 18C10.567 18 9 19.567 9 21.5C9 23.433 10.567 25 12.5 25ZM24 3.5C24 4.88071 22.8807 6 21.5 6C20.1193 6 19 4.88071 19 3.5C19 2.11929 20.1193 1 21.5 1C22.8807 1 24 2.11929 24 3.5ZM25 3.5C25 5.433 23.433 7 21.5 7C19.567 7 18 5.433 18 3.5C18 1.567 19.567 0 21.5 0C23.433 0 25 1.567 25 3.5ZM21.5 15C22.8807 15 24 13.8807 24 12.5C24 11.1193 22.8807 10 21.5 10C20.1193 10 19 11.1193 19 12.5C19 13.8807 20.1193 15 21.5 15ZM21.5 16C23.433 16 25 14.433 25 12.5C25 10.567 23.433 9 21.5 9C19.567 9 18 10.567 18 12.5C18 14.433 19.567 16 21.5 16ZM24 21.5C24 22.8807 22.8807 24 21.5 24C20.1193 24 19 22.8807 19 21.5C19 20.1193 20.1193 19 21.5 19C22.8807 19 24 20.1193 24 21.5ZM25 21.5C25 23.433 23.433 25 21.5 25C19.567 25 18 23.433 18 21.5C18 19.567 19.567 18 21.5 18C23.433 18 25 19.567 25 21.5Z" fill="#098B93"/>
</svg>
