<svg width="18" height="18" viewBox="0 0 18 18" fill="none" xmlns="http://www.w3.org/2000/svg">
<path d="M16.3327 8.60382C16.2109 6.63844 15.4644 4.97017 14.0933 3.59902C12.7221 2.22787 11.057 1.4846 9.09805 1.36922V0.234619C10.2275 0.280786 11.2894 0.530143 12.2836 0.982693C13.2778 1.43526 14.1509 2.03911 14.9028 2.79424C15.6548 3.54936 16.257 4.42404 16.7096 5.41827C17.1621 6.41249 17.4147 7.47434 17.4673 8.60382H16.3327ZM12.1654 8.60382C12.0436 7.80254 11.7022 7.12081 11.1413 6.55864C10.5804 5.99646 9.89933 5.66088 9.09805 5.55189V4.41732C10.2134 4.52629 11.1621 4.97084 11.9442 5.75097C12.7262 6.53109 13.1782 7.48204 13.3 8.60382H12.1654ZM16.3846 17.5C14.6115 17.5 12.7833 17.0525 10.9 16.1576C9.01664 15.2628 7.25832 13.9987 5.625 12.3654C3.99808 10.732 2.73719 8.97531 1.84232 7.09519C0.947442 5.21508 0.5 3.38849 0.5 1.61542C0.5 1.29949 0.605317 1.0346 0.81595 0.820769C1.02657 0.606935 1.28984 0.500018 1.60577 0.500018H4.45887C4.71961 0.500018 4.93972 0.58496 5.1192 0.754843C5.29868 0.92471 5.42497 1.14426 5.49805 1.41349L6.09433 4.09294C6.12886 4.34508 6.12048 4.57178 6.0692 4.77307C6.01792 4.97435 5.9205 5.14355 5.77695 5.28067L3.41727 7.57884C3.86342 8.34423 4.33458 9.0532 4.83075 9.70577C5.3269 10.3583 5.86343 10.9712 6.44035 11.5442C7.06343 12.184 7.72626 12.7679 8.42883 13.2961C9.13139 13.8244 9.88332 14.3045 10.6846 14.7365L12.9538 12.4019C13.1205 12.2186 13.307 12.0952 13.5135 12.0317C13.7199 11.9683 13.9353 11.9532 14.1596 11.9865L16.5865 12.5211C16.8557 12.5814 17.0753 12.717 17.2451 12.9278C17.415 13.1386 17.5 13.3774 17.5 13.6442V16.3942C17.5 16.7101 17.393 16.9734 17.1792 17.184C16.9654 17.3947 16.7005 17.5 16.3846 17.5ZM2.84998 6.55002L4.91345 4.54809C4.9391 4.52244 4.95673 4.48719 4.96632 4.44232C4.97594 4.39744 4.97755 4.35577 4.97115 4.31732L4.425 1.78847C4.41858 1.73719 4.39775 1.69873 4.3625 1.67309C4.32723 1.64744 4.28396 1.63462 4.23268 1.63462H1.76923C1.73076 1.63462 1.69871 1.64744 1.67307 1.67309C1.64742 1.69873 1.6346 1.73078 1.6346 1.76924C1.6487 2.46283 1.75639 3.20193 1.95767 3.98654C2.15896 4.77116 2.45639 5.62565 2.84998 6.55002ZM11.7577 15.2788C12.441 15.6147 13.1891 15.8763 14.0019 16.0634C14.8147 16.2506 15.5577 16.3545 16.2307 16.375C16.2692 16.375 16.3012 16.3622 16.3269 16.3365C16.3525 16.3109 16.3654 16.2788 16.3654 16.2404V13.7865C16.3654 13.7352 16.3525 13.692 16.3269 13.6567C16.3012 13.6215 16.2628 13.6006 16.2115 13.5942L13.9442 13.1269C13.9057 13.1205 13.8721 13.1221 13.8433 13.1317C13.8144 13.1413 13.7839 13.159 13.7519 13.1846L11.7577 15.2788Z" fill="#098B93"/>
</svg>
