<svg width="24" height="24" viewBox="0 0 24 24" fill="none" xmlns="http://www.w3.org/2000/svg">
<path d="M13.0498 21.5V19.95C13.6164 19.8666 14.1706 19.7166 14.7123 19.5C15.2539 19.2833 15.7664 19 16.2498 18.65L17.3036 19.7346C16.6677 20.2166 15.9937 20.6073 15.2815 20.9067C14.5693 21.206 13.8254 21.4038 13.0498 21.5ZM11.0498 21.5C8.89723 21.2192 7.1091 20.2794 5.68538 18.6807C4.26166 17.082 3.5498 15.2051 3.5498 13.05C3.5498 11.8705 3.77289 10.7654 4.21905 9.7346C4.6652 8.70384 5.2716 7.80512 6.03825 7.03845C6.80492 6.2718 7.70364 5.6654 8.73441 5.21925C9.76517 4.77309 10.8703 4.55 12.0498 4.55H12.5075L10.6883 2.73075L11.7421 1.64618L15.3959 5.3L11.7421 8.95383L10.6883 7.9L12.5383 6.04998H12.0498C10.0998 6.04998 8.44561 6.72915 7.08728 8.08748C5.72895 9.44581 5.04978 11.1 5.04978 13.05C5.04978 14.7833 5.61645 16.3041 6.74978 17.6125C7.88311 18.9208 9.31645 19.7064 11.0498 19.9692V21.5ZM18.7344 18.3038L17.6498 17.25C17.9998 16.7666 18.2847 16.2557 18.5046 15.7173C18.7245 15.1788 18.8793 14.6231 18.969 14.05H20.4998C20.4164 14.8192 20.2235 15.5599 19.9209 16.2721C19.6183 16.9843 19.2228 17.6615 18.7344 18.3038ZM20.4998 12.05H18.969C18.8793 11.4769 18.7245 10.9211 18.5046 10.3827C18.2847 9.84421 17.9998 9.33331 17.6498 8.84998L18.7344 7.79615C19.2164 8.38845 19.6061 9.04582 19.9036 9.76825C20.201 10.4907 20.3998 11.2513 20.4998 12.05Z" fill="#098B93"/>
</svg>
