<svg width="38" height="36" viewBox="0 0 38 36" fill="none" xmlns="http://www.w3.org/2000/svg">
<path d="M13.3 35.7001L10.1 30.3L4 29L4.6 22.7L0.5 18L4.6 13.3L4 7.00005L10.1 5.70005L13.3 0.300049L19 2.70005L24.7 0.300049L27.9 5.70005L34 7.00005L33.4 13.3L37.5 18L33.4 22.7L34 29L27.9 30.3L24.7 35.7001L19 33.3L13.3 35.7001ZM13.9 33.9001L19 31.8L24.1 33.9001L27 29.1L32.5 27.9L32 22.2L35.7 18L32 13.8L32.5 8.10005L27 6.90005L24.1 2.10005L19 4.20005L13.9 2.10005L11 6.90005L5.5 8.10005L6 13.8L2.3 18L6 22.2L5.5 27.9L11 29.1L13.9 33.9001ZM16.9 23.3L26.4 13.8L25.4 12.8L16.9 21.3L12.6 17L11.6 18L16.9 23.3Z" fill="#F9AE00"/>
</svg>
