<svg width="24" height="24" viewBox="0 0 24 24" fill="none" xmlns="http://www.w3.org/2000/svg">
<path d="M6.5001 5.90385C5.99498 5.90385 5.56101 5.72243 5.19817 5.3596C4.83536 4.99678 4.65395 4.56281 4.65395 4.0577C4.65395 3.55256 4.83536 3.11859 5.19817 2.75577C5.56101 2.39296 5.99498 2.21155 6.5001 2.21155C7.00522 2.21155 7.43919 2.39296 7.80202 2.75577C8.16484 3.11859 8.34625 3.55256 8.34625 4.0577C8.34625 4.56281 8.16484 4.99678 7.80202 5.3596C7.43919 5.72243 7.00522 5.90385 6.5001 5.90385ZM4.92317 21.75V14.9615H3.03857V9.01922C3.03857 8.52051 3.21517 8.09455 3.56837 7.74135C3.92157 7.38815 4.34753 7.21155 4.84625 7.21155H8.15395C8.65267 7.21155 9.07862 7.38815 9.43182 7.74135C9.78502 8.09455 9.96162 8.52051 9.96162 9.01922V11.2577C9.02061 11.8257 8.25011 12.6173 7.65012 13.6327C7.05012 14.6481 6.75012 15.7705 6.75012 17C6.75012 17.8602 6.89787 18.6679 7.19337 19.423C7.48889 20.1782 7.886 20.8243 8.3847 21.3615V21.75L4.92317 21.75ZM13.5193 21.7692C12.2065 21.7692 11.0834 21.3026 10.1501 20.3692C9.21679 19.4359 8.75012 18.3128 8.75012 17C8.75012 15.9987 9.03602 15.0962 9.6078 14.2923C10.1796 13.4885 10.9321 12.9103 11.8655 12.5577V14.1942C11.3706 14.4993 10.9776 14.8945 10.6866 15.3798C10.3956 15.865 10.2501 16.4051 10.2501 17C10.2501 17.9167 10.5658 18.6907 11.1972 19.3221C11.8286 19.9535 12.6027 20.2693 13.5193 20.2693C14.3783 20.2693 15.1267 19.9728 15.7645 19.3798C16.4024 18.7869 16.7405 18.0417 16.779 17.1442H18.2789C18.2276 18.4571 17.7449 19.5561 16.8308 20.4413C15.9167 21.3266 14.8129 21.7692 13.5193 21.7692ZM20.9924 19.3538L18.5847 15.75H13.2501V8.25002H14.7501V14.25H19.4155L22.2539 18.5327L20.9924 19.3538Z" fill="#098B93"/>
</svg>
