<svg width="32" height="32" viewBox="0 0 32 32" fill="none" xmlns="http://www.w3.org/2000/svg">
<path d="M21.9998 10.0001L20.6665 10.0001L20.6665 22.0001L21.9998 22.0001L21.9998 10.0001ZM16.6665 16.6667L15.3332 16.6667L15.3332 22.0001L16.6665 22.0001L16.6665 16.6667ZM11.3332 12.6667L9.99983 12.6667L9.99984 22.0001L11.3332 22.0001L11.3332 12.6667ZM24.5127 5.33341C25.1263 5.33341 25.6387 5.53897 26.0498 5.95008C26.4609 6.36119 26.6665 6.87358 26.6665 7.48725L26.6665 24.5129C26.6665 25.1266 26.4609 25.639 26.0498 26.0501C25.6387 26.4612 25.1263 26.6667 24.5127 26.6667L7.487 26.6667C6.87334 26.6667 6.36095 26.4612 5.94984 26.0501C5.53872 25.639 5.33317 25.1266 5.33317 24.5129L5.33317 7.48725C5.33317 6.87358 5.53872 6.36119 5.94983 5.95008C6.36094 5.53897 6.87333 5.33342 7.487 5.33342L24.5127 5.33341ZM24.5127 6.66675L7.487 6.66675C7.28189 6.66675 7.09386 6.75222 6.9229 6.92315C6.75197 7.0941 6.6665 7.28214 6.6665 7.48725L6.6665 24.5129C6.6665 24.718 6.75197 24.9061 6.9229 25.077C7.09386 25.2479 7.28189 25.3334 7.487 25.3334L24.5127 25.3334C24.7178 25.3334 24.9058 25.2479 25.0768 25.077C25.2477 24.9061 25.3332 24.718 25.3332 24.5129L25.3332 7.48725C25.3332 7.28214 25.2477 7.0941 25.0768 6.92315C24.9058 6.75221 24.7178 6.66675 24.5127 6.66675Z" fill="#098B93"/>
</svg>
