<svg width="36" height="36" viewBox="0 0 36 36" fill="none" xmlns="http://www.w3.org/2000/svg">
<path d="M20.6996 35.0001C20.43 35.2668 20.0959 35.4001 19.6974 35.4001C19.2989 35.4001 18.9663 35.2668 18.6996 35.0001L1.09961 17.4001C0.932943 17.2334 0.807943 17.0597 0.724609 16.8788C0.641276 16.698 0.599609 16.5051 0.599609 16.3001V2.0001C0.599609 1.63343 0.741276 1.30843 1.02461 1.0251C1.30794 0.741764 1.63294 0.600098 1.99961 0.600098H16.2996C16.4663 0.600098 16.6411 0.636214 16.824 0.708447C17.0069 0.780647 17.1655 0.877864 17.2996 1.0001L34.8996 18.6001C35.1996 18.9001 35.3579 19.2584 35.3746 19.6751C35.3913 20.0918 35.2663 20.4334 34.9996 20.7001L20.6996 35.0001ZM19.6772 34.0001L33.9996 19.7001L16.322 2.0001H1.99961V16.3001L19.6772 34.0001ZM6.99371 8.7001C7.46431 8.7001 7.86628 8.5354 8.19961 8.206C8.53294 7.87656 8.69961 7.47656 8.69961 7.006C8.69961 6.5354 8.53491 6.13343 8.20551 5.8001C7.87608 5.46676 7.47608 5.3001 7.00551 5.3001C6.53491 5.3001 6.13294 5.4648 5.79961 5.7942C5.46628 6.12363 5.29961 6.52363 5.29961 6.9942C5.29961 7.4648 5.46431 7.86676 5.79371 8.2001C6.12314 8.53343 6.52314 8.7001 6.99371 8.7001Z" fill="#F9AE00"/>
</svg>
