<svg width="18" height="17" viewBox="0 0 18 17" fill="none" xmlns="http://www.w3.org/2000/svg">
<path d="M17.4543 0.620801C17.1543 0.366401 16.6831 0.330001 16.1959 0.525601H16.1951C15.6827 0.731201 1.69074 6.7328 1.12114 6.978C1.01754 7.014 0.112742 7.3516 0.205942 8.1036C0.289142 8.7816 1.01634 9.0624 1.10514 9.0948L4.66234 10.3128C4.89834 11.0984 5.76834 13.9968 5.96074 14.616C6.08074 15.002 6.27634 15.5092 6.61914 15.6136C6.91994 15.7296 7.21914 15.6236 7.41274 15.4716L9.58754 13.4544L13.0983 16.1924L13.1819 16.2424C13.4203 16.348 13.6487 16.4008 13.8667 16.4008C14.0351 16.4008 14.1967 16.3692 14.3511 16.306C14.8771 16.09 15.0875 15.5888 15.1095 15.532L17.7319 1.9012C17.8919 1.1732 17.6695 0.802801 17.4543 0.620801ZM7.79954 10.8L6.59954 14L5.39954 10L14.5995 3.2L7.79954 10.8Z" fill="#098B93"/>
</svg>
