<svg width="20" height="20" viewBox="0 0 20 20" fill="none" xmlns="http://www.w3.org/2000/svg">
<path d="M10.0008 0.800003C4.92804 0.800003 0.800841 4.9272 0.800841 10C0.800841 11.584 1.21004 13.1416 1.98604 14.516L0.815641 18.692C0.777241 18.8292 0.814441 18.9764 0.913641 19.0784C0.990041 19.1572 1.09404 19.2 1.20084 19.2C1.23284 19.2 1.26524 19.196 1.29684 19.1884L5.65524 18.1088C6.98604 18.8232 8.48484 19.2 10.0008 19.2C15.0736 19.2 19.2008 15.0728 19.2008 10C19.2008 4.9272 15.0736 0.800003 10.0008 0.800003ZM14.6288 13.2464C14.432 13.7912 13.488 14.2884 13.0344 14.3552C12.6272 14.4148 12.112 14.4404 11.5464 14.2628C11.2036 14.1548 10.7636 14.0116 10.2 13.7712C7.83084 12.7608 6.28364 10.4052 6.16524 10.2496C6.04724 10.094 5.20084 8.9852 5.20084 7.8376C5.20084 6.69 5.81084 6.1256 6.02764 5.892C6.24444 5.6584 6.50004 5.6 6.65764 5.6C6.81524 5.6 6.97244 5.602 7.11044 5.6084C7.25564 5.6156 7.45044 5.5536 7.64204 6.0088C7.83884 6.476 8.31124 7.6236 8.36964 7.7408C8.42884 7.8576 8.46804 7.994 8.38964 8.1496C8.31124 8.3052 8.27204 8.4024 8.15364 8.5388C8.03524 8.6752 7.90564 8.8428 7.79924 8.9476C7.68084 9.064 7.55804 9.19 7.69564 9.4236C7.83324 9.6572 8.30724 10.4208 9.00964 11.0392C9.91164 11.8336 10.6728 12.08 10.9088 12.1968C11.1448 12.3136 11.2828 12.294 11.4204 12.1384C11.558 11.9824 12.0108 11.4572 12.168 11.224C12.3252 10.9908 12.4828 11.0292 12.6996 11.1072C12.9164 11.1848 14.0776 11.7488 14.3136 11.8656C14.5496 11.9824 14.7072 12.0408 14.7664 12.138C14.8256 12.2348 14.8256 12.702 14.6288 13.2464Z" fill="#098B93"/>
</svg>
