<svg width="295" height="101" viewBox="0 0 295 101" fill="none" xmlns="http://www.w3.org/2000/svg">
<path d="M35.2202 25.4335C37.5302 24.1144 39.9941 23.1072 42.5456 22.4306C45.1263 21.7465 47.7663 21.395 50.3965 21.395C58.637 21.395 66.1412 24.6609 71.6404 30.0286C77.0988 35.3566 80.5665 42.7516 80.7986 51.0723V51.2397C80.7918 59.7361 77.4046 67.3446 71.9307 72.8389C66.4016 78.3884 58.7719 81.7889 50.3624 81.7889C41.9836 81.7889 34.3769 78.4085 28.8558 72.9436C23.3316 67.4758 19.9131 59.9262 19.9131 51.5916C19.9131 34.9148 19.8957 29.4768 19.8783 24.0347C19.8556 16.8536 19.8318 9.66943 19.8235 2.50043H32.0548C32.0635 9.66943 32.0877 16.8536 32.1107 24.0347C32.1523 36.9897 32.1939 49.9452 32.1939 51.5916C32.1939 56.5428 34.2186 61.0222 37.4898 64.2609C40.7655 67.5034 45.316 69.5088 50.3624 69.5088C55.4142 69.5088 59.9719 67.4928 63.2476 64.2046C66.4999 60.9402 68.5231 56.4275 68.5654 51.3818C68.4199 46.397 66.3533 41.9802 63.1029 38.8077C59.8328 35.6167 55.3458 33.6751 50.3965 33.6751C48.7607 33.6751 47.1699 33.8807 45.6634 34.2795C44.1311 34.6861 42.6507 35.2908 41.2636 36.083L35.2202 25.4335ZM127.582 64.3139C130.836 61.0922 132.891 56.6248 133.007 51.5916C132.891 46.5588 130.836 42.0906 127.582 38.8697C124.319 35.6401 119.81 33.6747 114.82 33.6747C109.775 33.6747 105.225 35.6801 101.949 38.9218C98.6777 42.1605 96.6526 46.64 96.6526 51.5916C96.6526 56.5428 98.6765 61.0222 101.949 64.2609C105.225 67.5034 109.775 69.5088 114.82 69.5088C119.81 69.5088 124.319 67.5435 127.582 64.3139ZM145.242 51.6868C145.09 60.1178 141.663 67.6054 136.217 72.9966C130.694 78.4629 123.131 81.7889 114.82 81.7889C106.442 81.7889 98.836 78.4085 93.3153 72.9436C87.7896 67.4765 84.3722 59.9266 84.3722 51.5916C84.3722 43.2562 87.7911 35.707 93.3153 30.2391C98.836 24.7758 106.442 21.3943 114.82 21.3943C123.131 21.3943 130.694 24.7206 136.217 30.187C141.663 35.5777 145.09 43.065 145.242 51.4956V51.6868ZM188.687 36.083C187.302 35.2908 185.821 34.6861 184.287 34.2795C182.781 33.8807 181.19 33.6751 179.555 33.6751C174.605 33.6751 170.118 35.6167 166.849 38.8077C163.599 41.9795 161.531 46.397 161.386 51.3818C161.428 56.4275 163.451 60.9402 166.703 64.2046C169.979 67.4928 174.537 69.5088 179.59 69.5088C184.635 69.5088 189.186 67.5034 192.461 64.2609C195.733 61.0222 197.758 56.5428 197.758 51.5916C197.758 49.9452 197.799 36.9897 197.84 24.0347C197.864 16.8536 197.888 9.66943 197.897 2.50043H210.129C210.12 9.66943 210.095 16.8536 210.072 24.0347C210.056 29.4768 210.038 34.9148 210.038 51.5916C210.038 59.9262 206.619 67.4758 201.096 72.9436C195.574 78.4085 187.969 81.7889 179.59 81.7889C171.179 81.7889 163.549 78.3877 158.02 72.8389C152.548 67.3446 149.16 59.7361 149.153 51.2397V51.0723C149.385 42.7516 152.852 35.3566 158.31 30.0286C163.81 24.6609 171.316 21.395 179.555 21.395C182.186 21.395 184.824 21.7462 187.405 22.4306C189.957 23.1072 192.422 24.1144 194.731 25.4335L188.687 36.083ZM223.346 72.9966C217.899 67.6054 214.473 60.1178 214.32 51.6868V51.4956C214.473 43.065 217.899 35.5777 223.346 30.187C228.868 24.7206 236.431 21.3943 244.742 21.3943C253.12 21.3943 260.726 24.7758 266.247 30.2391C271.771 35.707 275.19 43.2562 275.19 51.5916C275.19 59.9266 271.772 67.4765 266.247 72.9436C260.726 78.4085 253.12 81.7889 244.742 81.7889C236.431 81.7889 228.868 78.4629 223.346 72.9966ZM226.555 51.5916C226.671 56.6248 228.726 61.0922 231.98 64.3139C235.243 67.5435 239.752 69.5088 244.742 69.5088C249.787 69.5088 254.338 67.5026 257.613 64.2609C260.886 61.0222 262.909 56.5428 262.909 51.5916C262.909 46.64 260.884 42.1605 257.613 38.9218C254.338 35.6801 249.787 33.6747 244.742 33.6747C239.752 33.6747 235.243 35.6401 231.98 38.8697C228.726 42.0906 226.671 46.5588 226.555 51.5916Z" fill="#098B93"/>
<path d="M50.6301 98.3496C37.6312 98.3496 25.8417 93.1161 17.2909 84.6537C8.7382 76.1899 3.448 64.499 3.448 51.5912H15.7277C15.7277 61.1164 19.6263 69.7359 25.9264 75.971C32.2302 82.2106 40.9636 86.0692 50.6301 86.0692V98.3496Z" fill="#F8AF03"/>
<path d="M244.74 86.0692C254.406 86.0692 263.14 82.2106 269.444 75.971C275.744 69.7359 279.642 61.1164 279.642 51.5912H291.922C291.922 64.499 286.632 76.1899 278.079 84.6537C269.529 93.1161 257.74 98.3496 244.74 98.3496V86.0692Z" fill="#F8AF03"/>
</svg>
